<?xml version="1.0" encoding="UTF-8"?>
<svg id="Layer_2" data-name="Layer 2" xmlns="http://www.w3.org/2000/svg" viewBox="0 0 19.67 14.67">
  <defs>
    <style>
      .cls-1 {
        fill: #fff;
      }
    </style>
  </defs>
  <g id="Layer_1-2" data-name="Layer 1">
    <g>
      <path class="cls-1" d="m7.5,13.87c.3-1.28.59-2.56.91-3.83.75-2.99,1.5-5.98,2.26-8.97.05-.19.1-.39.18-.57.16-.38.43-.58.85-.46.41.11.51.42.43.8-.21.91-.41,1.82-.64,2.73-.88,3.45-1.75,6.9-2.65,10.35-.06.25-.23.54-.44.66-.43.27-.85-.1-.89-.71Z"/>
      <path class="cls-1" d="m1.62,7.33c.81.75,1.56,1.44,2.3,2.14.19.18.44.34.53.56.1.26.15.63.03.85-.18.32-.56.28-.83.03-1.16-1.07-2.31-2.15-3.45-3.23-.25-.23-.24-.5,0-.73,1.15-1.08,2.3-2.16,3.46-3.23.28-.26.59-.22.84.06.26.29.21.59-.05.85-.7.68-1.41,1.36-2.12,2.04-.21.21-.43.41-.7.66Z"/>
      <path class="cls-1" d="m19.67,7.32c-.13.19-.22.42-.39.58-1.02.98-2.06,1.95-3.1,2.91-.31.29-.66.48-1.02.05-.36-.43-.1-.73.21-1.02.73-.68,1.45-1.38,2.19-2.04.36-.32.41-.56.02-.91-.77-.69-1.52-1.41-2.25-2.15-.17-.17-.32-.44-.31-.67,0-.43.6-.67.96-.35,1.18,1.04,2.32,2.13,3.47,3.2.09.09.13.24.22.4Z"/>
    </g>
  </g>
</svg>