<svg xmlns="http://www.w3.org/2000/svg" width="36.117" height="36.386" viewBox="0 0 36.117 36.386">
  <g id="graduation_cap-pen-pencil-education" data-name="graduation cap-pen-pencil-education" transform="translate(-3 -3.003)">
    <path id="Path_6" data-name="Path 6" d="M42.461,53.681,43.3,52H41.62Z" transform="translate(-14.7 -18.741)" fill="none" stroke="#fff" stroke-width="2"/>
    <path id="Path_7" data-name="Path 7" d="M24.966,18.554a.75.75,0,0,1-.122-.012L14,16.3v7.737c0,1.73,4.5,3.655,10.966,3.655s10.966-1.925,10.966-3.655V16.3L25.088,18.542A.75.75,0,0,1,24.966,18.554ZM15.218,28.3h2.437v1.218H15.218v3.046h1.218v1.218H15.218v3.046h2.437V38.05H15.218v2.437h4.265V28.412a16.169,16.169,0,0,1-4.265-1.371Z" transform="translate(-3.908 -4.791)" fill="none" stroke="#fff" stroke-width="2"/>
    <path id="Path_8" data-name="Path 8" d="M21.059,4.04,4,8.743v.262l17.059,3.528L35.681,9.5V8.89H36.9v.366l1.218-.25V8.743Z" transform="translate(0 0)" fill="none" stroke="#fff" stroke-width="2"/>
    <path id="Path_9" data-name="Path 9" d="M36.7,44.2h2.437V35.16a18.958,18.958,0,0,1-2.437.621Zm.609-7.92h1.218v6.7H37.311ZM30,46.388l.177-.183a.614.614,0,0,1,.865,0l.177.183.177-.183a.614.614,0,0,1,.865,0l.177.183V40.546H30Zm0-10.132V37.5h2.437V36.257c-.408.018-.81.024-1.218.024S30.408,36.275,30,36.257Z" transform="translate(-10.16 -12.16)" fill="none" stroke="#fff" stroke-width="2"/>
    <rect id="Rectangle_6" data-name="Rectangle 6" width="2.437" height="0.609" transform="translate(19.84 26.558)" fill="none" stroke="#fff" stroke-width="2"/>
    <path id="Path_10" data-name="Path 10" d="M31.651,39.8a.614.614,0,0,1-.865,0l-.177-.183L30,40.229v.158l1.218,1.621,1.218-1.621v-.158l-.609-.609ZM47.059,18.125V15H45.84v3.125a2.228,2.228,0,0,1,.609-.079A2.259,2.259,0,0,1,47.059,18.125Zm-.609.53a1.222,1.222,0,0,0-1.218,1.218v2.437h2.437V19.874A1.228,1.228,0,0,0,46.45,18.655Z" transform="translate(-10.16 -4.283)" fill="none" stroke="#fff" stroke-width="2"/>
  </g>
</svg>
