<svg xmlns="http://www.w3.org/2000/svg" width="38.349" height="40.905" viewBox="0 0 38.349 40.905">
  <path id="f9332353032379d5ce64760286757302" d="M10.587,0a.639.639,0,0,0-.639.639V2.557H1.639A.639.639,0,0,0,1,3.2,20.6,20.6,0,0,0,5.98,17.165a19.222,19.222,0,0,0,9.06,5.8,10.151,10.151,0,0,0,.782.8A7.377,7.377,0,0,0,17.688,25a.639.639,0,0,0,.095.183,4.933,4.933,0,0,1,.358.577,2.222,2.222,0,0,1,.266.872,1.83,1.83,0,0,1-.744.943,4.593,4.593,0,0,1-.759.455.639.639,0,0,0-.219.165c-.032.026-.095.026-.118.051a1.05,1.05,0,0,0-.217.381,2.359,2.359,0,0,0,0,1.407,1.651,1.651,0,0,0,.112.2,4.7,4.7,0,0,1-.51,2.654,13.36,13.36,0,0,1-1.91,1.758l-.032.027L14,34.676a.639.639,0,0,0-.112.13l-.018.032-.014.022-.008.018a.639.639,0,0,0-.055.178q0,.008,0,.015a.639.639,0,0,0-.008.082V37.07h-.45a.841.841,0,0,0-.828.831v2.176a.843.843,0,0,0,.828.828H27.016a.839.839,0,0,0,.828-.828V37.9a.846.846,0,0,0-.828-.831H26.6V35.153a.639.639,0,0,0-.371-.582A12.343,12.343,0,0,1,24.4,32.879a4.693,4.693,0,0,1-.51-2.656,1.651,1.651,0,0,0,.112-.2,2.058,2.058,0,0,0,.1-.7A2.037,2.037,0,0,0,24,28.617a1.051,1.051,0,0,0-.22-.377.9.9,0,0,0-.312-.2,5.863,5.863,0,0,1-.8-.51,2.1,2.1,0,0,1-.729-.886,2.287,2.287,0,0,1,.277-.888,4.946,4.946,0,0,1,.354-.578A.639.639,0,0,0,22.661,25a7.4,7.4,0,0,0,1.866-1.228,9.932,9.932,0,0,0,.78-.805,19.216,19.216,0,0,0,9.062-5.8A20.6,20.6,0,0,0,39.349,3.2a.639.639,0,0,0-.639-.639H30.4V.639A.639.639,0,0,0,29.761,0Zm.639,1.278h17.9V3.738h-17.9ZM2.333,3.835H9.948v.542q0,.031,0,.063c0,.226.009.447.013.674H4.579a.639.639,0,0,0-.639.639A15.028,15.028,0,0,0,7.583,15.1a21.5,21.5,0,0,0,5.47,4.854c.215.424.44.824.676,1.209a18.439,18.439,0,0,1-6.792-4.841A19.184,19.184,0,0,1,2.333,3.835Zm28.067,0h7.615A19.168,19.168,0,0,1,33.41,16.319a18.439,18.439,0,0,1-6.792,4.841q.353-.575.674-1.209A21.538,21.538,0,0,0,32.765,15.1a15.048,15.048,0,0,0,3.643-9.346.639.639,0,0,0-.639-.639H30.385c0-.247.015-.488.015-.736ZM11.281,5.016H29.067A35.66,35.66,0,0,1,26.54,18.6a12.585,12.585,0,0,1-2.868,4.222,5.14,5.14,0,0,1-3.5,1.47,5.14,5.14,0,0,1-3.5-1.47A12.607,12.607,0,0,1,13.806,18.6,35.638,35.638,0,0,1,11.281,5.016ZM5.354,6.391H9.99a37.392,37.392,0,0,0,2.071,11.3A21.309,21.309,0,0,1,8.58,14.3,14.125,14.125,0,0,1,5.354,6.391Zm25,0h4.638a14.134,14.134,0,0,1-3.226,7.9,21.374,21.374,0,0,1-3.485,3.4,37.4,37.4,0,0,0,2.075-11.3ZM19.388,25.636a5.764,5.764,0,0,0,1.57,0,2.138,2.138,0,0,0-.291,1.13,2.626,2.626,0,0,0,1.223,1.773,5.8,5.8,0,0,0,.911.579.907.907,0,0,1,.026.207.715.715,0,0,1-.009.075H17.531a.714.714,0,0,1-.01-.075.826.826,0,0,1,.026-.2,4.588,4.588,0,0,0,.878-.522,2.772,2.772,0,0,0,1.248-1.8A2.047,2.047,0,0,0,19.388,25.636Zm-1.776,5.043h5.123a6.122,6.122,0,0,0,.6,2.916,5.542,5.542,0,0,0,.975.919H16.038a5.542,5.542,0,0,0,.975-.919,6.12,6.12,0,0,0,.6-2.916Zm-2.551,5.113H25.322V37.07H15.061Zm-1.278,2.557H26.566v1.278H13.783Z" transform="translate(-1)" fill="#fff" fill-rule="evenodd"/>
</svg>
