<svg xmlns="http://www.w3.org/2000/svg" width="39.631" height="36" viewBox="0 0 39.631 36">
  <g id="_872611555739f2e7a18011106777f28f" data-name="872611555739f2e7a18011106777f28f" transform="translate(-6.699 -9.03)">
    <path id="Path_11" data-name="Path 11" d="M11.379,45.518a1.168,1.168,0,0,1-1.026-.61L7.341,39.372a1.168,1.168,0,0,1-.142-.558V15.168A1.168,1.168,0,0,1,8.368,14h6.024a1.168,1.168,0,0,1,1.168,1.168V38.814a1.168,1.168,0,0,1-.143.558l-3.012,5.537a1.168,1.168,0,0,1-1.027.61Zm-1.843-7,1.843,3.389,1.844-3.389V16.336H9.536Z" transform="translate(0 -0.989)" fill="#fff" stroke="#fff" stroke-width="1"/>
    <path id="Path_12" data-name="Path 12" d="M14.392,19.918H8.368a1.168,1.168,0,0,1,0-2.336h6.024a1.168,1.168,0,1,1,0,2.336ZM44.661,44.53H19.355a1.168,1.168,0,0,1-1.168-1.168V10.7A1.168,1.168,0,0,1,19.355,9.53H36.592a1.168,1.168,0,0,1,.9.427l8.069,9.813a1.168,1.168,0,0,1,.266.741v22.85a1.168,1.168,0,0,1-1.169,1.168ZM20.522,42.193h22.97V20.932l-7.453-9.065H20.523Z" transform="translate(0 0)" fill="#fff" stroke="#fff" stroke-width="1"/>
    <path id="Path_13" data-name="Path 13" d="M44.606,21.679a1.168,1.168,0,0,1-1.168-1.168V10.7a1.168,1.168,0,1,1,2.336,0v9.813A1.168,1.168,0,0,1,44.606,21.679Z" transform="translate(-8.016)" fill="#fff" stroke="#fff" stroke-width="1"/>
    <path id="Path_14" data-name="Path 14" d="M52.676,24.466h-8.07a1.168,1.168,0,1,1,0-2.336h8.07a1.168,1.168,0,1,1,0,2.336Z" transform="translate(-8.016 -2.787)" fill="#fff" stroke="#fff" stroke-width="1"/>
  </g>
</svg>
