<svg xmlns="http://www.w3.org/2000/svg" width="39.218" height="34.746" viewBox="0 0 39.218 34.746">
  <path id="_97caeb18edc1831a559b29b6ba033ded" data-name="97caeb18edc1831a559b29b6ba033ded" d="M37.207,59H1.71A1.712,1.712,0,0,0,0,60.71V83.742a1.712,1.712,0,0,0,1.71,1.71H25.838V92.33a1.1,1.1,0,0,0,1.708.92l2.327-1.532L32.2,93.251a1.1,1.1,0,0,0,1.708-.92V85.452h3.3a1.712,1.712,0,0,0,1.71-1.71V60.71A1.712,1.712,0,0,0,37.207,59ZM32.767,92.259,30.48,90.753a1.1,1.1,0,0,0-1.212,0L26.98,92.259V84.654a2.469,2.469,0,0,1,.6.133,3.167,3.167,0,0,1,.649.443A2.691,2.691,0,0,0,29.875,86a2.687,2.687,0,0,0,1.649-.774,3.209,3.209,0,0,1,.649-.443,2.462,2.462,0,0,1,.6-.133Zm1.081-9.045a1.92,1.92,0,0,1-1,.28,4.174,4.174,0,0,0-1.114.239,3.956,3.956,0,0,0-.922.608,1.876,1.876,0,0,1-.938.524,1.876,1.876,0,0,1-.938-.524,4.055,4.055,0,0,0-.922-.608,4.173,4.173,0,0,0-1.114-.239,1.913,1.913,0,0,1-1-.28,1.927,1.927,0,0,1-.28-1,5.131,5.131,0,0,0-.164-.9c0-.013-.008-.025-.012-.037-.019-.059-.039-.117-.063-.174a4.062,4.062,0,0,0-.6-.923,1.872,1.872,0,0,1-.525-.938,1.87,1.87,0,0,1,.525-.937,3.938,3.938,0,0,0,.6-.923,4.162,4.162,0,0,0,.239-1.113,1.93,1.93,0,0,1,.28-1,1.956,1.956,0,0,1,1-.28,4.143,4.143,0,0,0,1.114-.239,3.972,3.972,0,0,0,.922-.608,1.878,1.878,0,0,1,.938-.525,1.878,1.878,0,0,1,.938.525,4.055,4.055,0,0,0,.922.608,4.143,4.143,0,0,0,1.114.239,1.927,1.927,0,0,1,1,.28,1.928,1.928,0,0,1,.28,1,4.131,4.131,0,0,0,.239,1.113c.01.024.021.046.031.069l.016.035a4.467,4.467,0,0,0,.557.819,1.873,1.873,0,0,1,.525.937,1.875,1.875,0,0,1-.525.938,3.938,3.938,0,0,0-.6.923,4.162,4.162,0,0,0-.239,1.113,1.931,1.931,0,0,1-.28,1Zm-9.967-2.323v0H6.779a2.86,2.86,0,0,0-2.218-2.227V65.784a2.86,2.86,0,0,0,2.223-2.223h25.35a2.86,2.86,0,0,0,2.223,2.223v8.437a3.338,3.338,0,0,0-1.375-.373,3.348,3.348,0,0,1-.812-.16,3.167,3.167,0,0,1-.649-.443,2.692,2.692,0,0,0-1.649-.775,2.688,2.688,0,0,0-1.649.775,3.209,3.209,0,0,1-.649.443,3.348,3.348,0,0,1-.812.16,2.671,2.671,0,0,0-1.672.608,2.7,2.7,0,0,0-.608,1.672,3.3,3.3,0,0,1-.16.811,3.139,3.139,0,0,1-.443.65,2.146,2.146,0,0,0,0,3.3Zm13.9,2.85a.57.57,0,0,1-.57.57H34.254a1.635,1.635,0,0,0,.4-.291,2.693,2.693,0,0,0,.608-1.672,3.3,3.3,0,0,1,.16-.811,3.14,3.14,0,0,1,.443-.65,2.142,2.142,0,0,0,0-3.3,4.853,4.853,0,0,1-.369-.5V65.271a.57.57,0,0,0-.57-.57,1.712,1.712,0,0,1-1.71-1.71.57.57,0,0,0-.57-.57H6.271a.57.57,0,0,0-.57.57,1.712,1.712,0,0,1-1.71,1.71.57.57,0,0,0-.57.57v13.91a.57.57,0,0,0,.57.57,1.712,1.712,0,0,1,1.71,1.71.57.57,0,0,0,.57.57H24.444c.015.1.028.208.041.317a2.662,2.662,0,0,0,.608,1.672,1.634,1.634,0,0,0,.4.291H1.71a.57.57,0,0,1-.57-.57V60.71a.57.57,0,0,1,.57-.57h35.5a.57.57,0,0,1,.57.57ZM20.4,78.421a4.99,4.99,0,0,1-3.072.273,4.739,4.739,0,0,1-.958-.395,4.493,4.493,0,0,0-1.418-.505,5.046,5.046,0,0,0-3.251.66.57.57,0,1,0,.544,1,3.951,3.951,0,0,1,2.524-.537,3.576,3.576,0,0,1,1.087.4,5.768,5.768,0,0,0,1.172.476,5.064,5.064,0,0,0,1.336.175,6.909,6.909,0,0,0,2.432-.48.57.57,0,0,0-.4-1.064Zm2.48-3.458H7.411a.57.57,0,0,0,0,1.14H22.879a.57.57,0,0,0,0-1.14Zm0-2.28H7.411a.57.57,0,0,0,0,1.14H22.879a.57.57,0,0,0,0-1.14Zm6.993,3.212a3.344,3.344,0,1,0,3.344,3.344A3.344,3.344,0,0,0,29.872,75.894Zm0,5.549a2.2,2.2,0,1,1,2.2-2.2A2.2,2.2,0,0,1,29.872,81.443ZM13.682,70.972a.57.57,0,0,0,.57.57H31.507a.57.57,0,1,0,0-1.14H14.252a.57.57,0,0,0-.57.57Zm-6.271.57h3.573a.57.57,0,1,0,0-1.14H7.411a.57.57,0,1,0,0,1.14Zm4.561-4.561H26.946a.57.57,0,1,0,0-1.14H11.972a.57.57,0,1,0,0,1.14Z" transform="translate(0.15 -58.85)" fill="#fff" stroke="#fff" stroke-width="0.3"/>
</svg>
